# xmcd
#
# Track frame offsets: 
#        150
#        20863
#        38119
#        53757
#        73656
#        94527
#        119941
#        140525
#        162400
#        187855
#        202828
#        218168
#        241176
#        267085
#        290455
#        310193
#        321495
#        337560
#
# Disc length: 4782 seconds
#
# Revision: 2
# Processed by: cddbd v1.5.2PL0 Copyright (c) Steve Scherf et al.
# Submitted via: ExactAudioCopy v1.3
#
DISCID=0712ac12
DTITLE=Various Artist - Akella Presents - vol.112 - Women's Blues  CD
DTITLE=2
DYEAR=2017
DGENRE=Blues
TTITLE0=Karen Lawrence and Blue By Nature - Goodbye Mr. Jones
TTITLE1=Bridget Kelly Band - Blues In My Kitchen
TTITLE2=Shakura S'aida - Big City Lights (Have U Seen My Baby)
TTITLE3=Tommie Lee Bradley - What's a Child to Do
TTITLE4=Ina Forsman - Don't Hurt Me Now
TTITLE5=Janiva Magness - I Love You More Than You'll Ever Know
TTITLE6=Edlene Hart - This Time I'm Gone for Good
TTITLE7=Sue Foley - So Far
TTITLE8=Angel and the Bad Boys - Rather Go Blind
TTITLE9=Deb Ryder - Prisoner Of War
TTITLE10=Maria Muldaur - Woman's Lament
TTITLE11=Rory Block - Death Don't Have No Mercy
TTITLE12=Lucinda Williams - Something Wicked This Way Comes
TTITLE13=Vala Cupp - Don't Touch Me
TTITLE14=Dani Wilde - Are You Ready
TTITLE15=Olga - You Don't Know
TTITLE16=Renee Geyer - It's A Man's Man's World
TTITLE17=Rita Chiarelli And The TBSO - The Thrill Is Gone
EXTD=
EXTT0=
EXTT1=
EXTT2=
EXTT3=
EXTT4=
EXTT5=
EXTT6=
EXTT7=
EXTT8=
EXTT9=
EXTT10=
EXTT11=
EXTT12=
EXTT13=
EXTT14=
EXTT15=
EXTT16=
EXTT17=
PLAYORDER=
